;TYPE=PLATED
;Layer: PTH_Through_Via
;EasyEDA Pro v3.2.148, 2026-06-02 03:14:55
;Gerber Generator version 0.3
M48
METRIC,LZ,0000.00000
;Hole size 1 = 0.30500 METRIC
T01C0.30500
%
G05
G90
T01
X-16.89964Y23.622
X-1.61799Y8.50899
X-14.986Y-29.72664
X-5.3401Y-30.15513
X0.5141Y-30.15513
X6.03098Y-35.179
X-14.98601Y-31.27501
X-6.731Y-30.861
X-4.80778Y0.635
X-43.18864Y3.175
X31.10636Y-27.432
X49.276Y15.75664
X56.89601Y-11.65099
X-6.03098Y-64.135
X-5.715Y1.27
X-37.592Y-37.465
X-21.41601Y-11.34801
X-34.544Y-42.926
X-3.81Y-30.861
X-2.41376Y-18.288
X4.85374Y-18.288
M30