;TYPE=PLATED
;Layer: PTH_Through
;EasyEDA Pro v3.2.148, 2026-06-02 03:14:55
;Gerber Generator version 0.3
M48
METRIC,LZ,0000.00000
;Hole size 1 = 0.30500 METRIC
T01C0.30500
;Hole size 2 = 0.80000 METRIC
T02C0.80000
;Hole size 3 = 1.00000 METRIC
T03C1.00000
;Hole size 4 = 1.20000 METRIC
T04C1.20000
%
G05
G90
T01
X-16.89964Y23.622
X-1.61799Y8.50899
X-14.986Y-29.72664
X-5.3401Y-30.15513
X0.5141Y-30.15513
X6.03098Y-35.179
X-14.98601Y-31.27501
X-6.731Y-30.861
X-4.80778Y0.635
X-43.18864Y3.175
X31.10636Y-27.432
X49.276Y15.75664
X56.89601Y-11.65099
X-6.03098Y-64.135
X-5.715Y1.27
X-37.592Y-37.465
X-21.41601Y-11.34801
X-34.544Y-42.926
X-3.81Y-30.861
X-2.41376Y-18.288
X4.85374Y-18.288
T02
X-7.239Y-13.208
X-4.699Y-13.208
X-2.159Y-13.208
X0.381Y-13.208
X2.921Y-13.208
X5.461Y-13.208
X8.001Y-13.208
X10.541Y-13.208
X-7.239Y-20.828
X-4.699Y-20.828
X-2.159Y-20.828
X0.381Y-20.828
X2.921Y-20.828
X5.461Y-20.828
X8.001Y-20.828
X10.541Y-20.828
T03
X-66.421Y-11.176
X-63.881Y-11.176
X-37.465Y-42.926
X-37.465Y-40.386
X19.685Y33.528
X17.145Y33.528
X-69.088Y21.336
X-66.548Y21.336
X-1.143Y-77.597
X1.397Y-77.597
X67.31Y-11.049
X67.31Y-13.589
X67.691Y20.574
X67.691Y23.114
X-18.034Y33.274
X-20.574Y33.274
X41.148Y-40.767
X38.608Y-40.767
T04
X44.08416Y-13.335
X23.73417Y-13.335
M30