G04 Layer: TopPasteMaskLayer*
G04 EasyEDA Pro v3.2.148, 2026-06-02 03:14:54*
G04 Gerber Generator version 0.3*
G04 Scale: 100 percent, Rotated: No, Reflected: No*
G04 Dimensions in millimeters*
G04 Leading zeros omitted, absolute positions, 4 integers and 5 decimals*
G04 Generated by one-click*
G04 Object Configs: Pad,Via,Track,Text,Image,Dimension,BoardOutline,BoardCutout,CopperFilled,SolidRegion,FPCStiffener,Line,PlaneZone,ComponentProperty,ComponentSilkscreen,TearDrop*
G04 Layer Configs: 1,2,3,4,5,6,7,8,9,10,11,13,14,56*
G04 Copper Areas: 0*
%FSLAX45Y45*%
%MOMM*%
%ADD10R,0.8X0.9*%
%ADD11C,0.9372*%
G75*


G04 PolygonModel Start*
G36*
G01X-121798Y895899D02*
G01X-116799Y890897D01*
G01X-116799Y810898D01*
G01X-121798Y805899D01*
G01X-201798Y805899D01*
G01X-206799Y810898D01*
G01X-206799Y835101D01*
G01X-169799Y835101D01*
G01X-169799Y868101D01*
G01X-206799Y868101D01*
G01X-206799Y890897D01*
G01X-201798Y895899D01*
G01X-121798Y895899D01*
G37*
G36*
G01X-360802Y805901D02*
G01X-365801Y810903D01*
G01X-365801Y890902D01*
G01X-360802Y895901D01*
G01X-280802Y895901D01*
G01X-275801Y890902D01*
G01X-275801Y866699D01*
G01X-312801Y866699D01*
G01X-312801Y833699D01*
G01X-275801Y833699D01*
G01X-275801Y810903D01*
G01X-280802Y805901D01*
G01X-360802Y805901D01*
G37*
G36*
G01X-1950598Y-1072601D02*
G01X-1945599Y-1077603D01*
G01X-1945599Y-1157602D01*
G01X-1950598Y-1162601D01*
G01X-2030598Y-1162601D01*
G01X-2035599Y-1157602D01*
G01X-2035599Y-1133399D01*
G01X-1998599Y-1133399D01*
G01X-1998599Y-1100399D01*
G01X-2035599Y-1100399D01*
G01X-2035599Y-1077603D01*
G01X-2030598Y-1072601D01*
G01X-1950598Y-1072601D01*
G37*
G36*
G01X-2189602Y-1162599D02*
G01X-2194601Y-1157597D01*
G01X-2194601Y-1077598D01*
G01X-2189602Y-1072599D01*
G01X-2109602Y-1072599D01*
G01X-2104601Y-1077598D01*
G01X-2104601Y-1101801D01*
G01X-2141601Y-1101801D01*
G01X-2141601Y-1134801D01*
G01X-2104601Y-1134801D01*
G01X-2104601Y-1157597D01*
G01X-2109602Y-1162599D01*
G01X-2189602Y-1162599D01*
G37*
G36*
G01X1287902Y2203999D02*
G01X1292901Y2198997D01*
G01X1292901Y2118998D01*
G01X1287902Y2113999D01*
G01X1207902Y2113999D01*
G01X1202901Y2118998D01*
G01X1202901Y2143201D01*
G01X1239901Y2143201D01*
G01X1239901Y2176201D01*
G01X1202901Y2176201D01*
G01X1202901Y2198997D01*
G01X1207902Y2203999D01*
G01X1287902Y2203999D01*
G37*
G36*
G01X1048898Y2114001D02*
G01X1043899Y2119003D01*
G01X1043899Y2199002D01*
G01X1048898Y2204001D01*
G01X1128898Y2204001D01*
G01X1133899Y2199002D01*
G01X1133899Y2174799D01*
G01X1096899Y2174799D01*
G01X1096899Y2141799D01*
G01X1133899Y2141799D01*
G01X1133899Y2119003D01*
G01X1128898Y2114001D01*
G01X1048898Y2114001D01*
G37*
G36*
G01X3154802Y-2698201D02*
G01X3159801Y-2703203D01*
G01X3159801Y-2783202D01*
G01X3154802Y-2788201D01*
G01X3074802Y-2788201D01*
G01X3069801Y-2783202D01*
G01X3069801Y-2758999D01*
G01X3106801Y-2758999D01*
G01X3106801Y-2725999D01*
G01X3069801Y-2725999D01*
G01X3069801Y-2703203D01*
G01X3074802Y-2698201D01*
G01X3154802Y-2698201D01*
G37*
G36*
G01X2915798Y-2788199D02*
G01X2910799Y-2783197D01*
G01X2910799Y-2703198D01*
G01X2915798Y-2698199D01*
G01X2995798Y-2698199D01*
G01X3000799Y-2703198D01*
G01X3000799Y-2727401D01*
G01X2963799Y-2727401D01*
G01X2963799Y-2760401D01*
G01X3000799Y-2760401D01*
G01X3000799Y-2783197D01*
G01X2995798Y-2788199D01*
G01X2915798Y-2788199D01*
G37*
G36*
G01X2291202Y-5441401D02*
G01X2296201Y-5446403D01*
G01X2296201Y-5526402D01*
G01X2291202Y-5531401D01*
G01X2211202Y-5531401D01*
G01X2206201Y-5526402D01*
G01X2206201Y-5502199D01*
G01X2243201Y-5502199D01*
G01X2243201Y-5469199D01*
G01X2206201Y-5469199D01*
G01X2206201Y-5446403D01*
G01X2211202Y-5441401D01*
G01X2291202Y-5441401D01*
G37*
G36*
G01X2052198Y-5531399D02*
G01X2047199Y-5526397D01*
G01X2047199Y-5446398D01*
G01X2052198Y-5441399D01*
G01X2132198Y-5441399D01*
G01X2137199Y-5446398D01*
G01X2137199Y-5470601D01*
G01X2100199Y-5470601D01*
G01X2100199Y-5503601D01*
G01X2137199Y-5503601D01*
G01X2137199Y-5526397D01*
G01X2132198Y-5531399D01*
G01X2052198Y-5531399D01*
G37*
G36*
G01X5644601Y-1125098D02*
G01X5649603Y-1120099D01*
G01X5729602Y-1120099D01*
G01X5734601Y-1125098D01*
G01X5734601Y-1205098D01*
G01X5729602Y-1210099D01*
G01X5705399Y-1210099D01*
G01X5705399Y-1173099D01*
G01X5672399Y-1173099D01*
G01X5672399Y-1210099D01*
G01X5649603Y-1210099D01*
G01X5644601Y-1205098D01*
G01X5644601Y-1125098D01*
G37*
G36*
G01X5734599Y-1364102D02*
G01X5729597Y-1369101D01*
G01X5649598Y-1369101D01*
G01X5644599Y-1364102D01*
G01X5644599Y-1284102D01*
G01X5649598Y-1279101D01*
G01X5673801Y-1279101D01*
G01X5673801Y-1316101D01*
G01X5706801Y-1316101D01*
G01X5706801Y-1279101D01*
G01X5729597Y-1279101D01*
G01X5734599Y-1284102D01*
G01X5734599Y-1364102D01*
G37*
G36*
G01X4985299Y1569598D02*
G01X4980297Y1564599D01*
G01X4900298Y1564599D01*
G01X4895299Y1569598D01*
G01X4895299Y1649598D01*
G01X4900298Y1654599D01*
G01X4924501Y1654599D01*
G01X4924501Y1617599D01*
G01X4957501Y1617599D01*
G01X4957501Y1654599D01*
G01X4980297Y1654599D01*
G01X4985299Y1649598D01*
G01X4985299Y1569598D01*
G37*
G36*
G01X4895301Y1808602D02*
G01X4900303Y1813601D01*
G01X4980302Y1813601D01*
G01X4985301Y1808602D01*
G01X4985301Y1728602D01*
G01X4980302Y1723601D01*
G01X4956099Y1723601D01*
G01X4956099Y1760601D01*
G01X4923099Y1760601D01*
G01X4923099Y1723601D01*
G01X4900303Y1723601D01*
G01X4895301Y1728602D01*
G01X4895301Y1808602D01*
G37*
G36*
G01X-1645798Y2407199D02*
G01X-1640799Y2402197D01*
G01X-1640799Y2322198D01*
G01X-1645798Y2317199D01*
G01X-1725798Y2317199D01*
G01X-1730799Y2322198D01*
G01X-1730799Y2346401D01*
G01X-1693799Y2346401D01*
G01X-1693799Y2379401D01*
G01X-1730799Y2379401D01*
G01X-1730799Y2402197D01*
G01X-1725798Y2407199D01*
G01X-1645798Y2407199D01*
G37*
G36*
G01X-1884802Y2317201D02*
G01X-1889801Y2322203D01*
G01X-1889801Y2402202D01*
G01X-1884802Y2407201D01*
G01X-1804802Y2407201D01*
G01X-1799801Y2402202D01*
G01X-1799801Y2377999D01*
G01X-1836801Y2377999D01*
G01X-1836801Y2344999D01*
G01X-1799801Y2344999D01*
G01X-1799801Y2322203D01*
G01X-1804802Y2317201D01*
G01X-1884802Y2317201D01*
G37*
G36*
G01X-4274698Y362499D02*
G01X-4269699Y357497D01*
G01X-4269699Y277498D01*
G01X-4274698Y272499D01*
G01X-4354698Y272499D01*
G01X-4359699Y277498D01*
G01X-4359699Y301701D01*
G01X-4322699Y301701D01*
G01X-4322699Y334701D01*
G01X-4359699Y334701D01*
G01X-4359699Y357497D01*
G01X-4354698Y362499D01*
G01X-4274698Y362499D01*
G37*
G36*
G01X-4513702Y272501D02*
G01X-4518701Y277503D01*
G01X-4518701Y357502D01*
G01X-4513702Y362501D01*
G01X-4433702Y362501D01*
G01X-4428701Y357502D01*
G01X-4428701Y333299D01*
G01X-4465701Y333299D01*
G01X-4465701Y300299D01*
G01X-4428701Y300299D01*
G01X-4428701Y277503D01*
G01X-4433702Y272501D01*
G01X-4513702Y272501D01*
G37*
G36*
G01X-1543599Y-2928498D02*
G01X-1538597Y-2923499D01*
G01X-1458598Y-2923499D01*
G01X-1453599Y-2928498D01*
G01X-1453599Y-3008498D01*
G01X-1458598Y-3013499D01*
G01X-1482801Y-3013499D01*
G01X-1482801Y-2976499D01*
G01X-1515801Y-2976499D01*
G01X-1515801Y-3013499D01*
G01X-1538597Y-3013499D01*
G01X-1543599Y-3008498D01*
G01X-1543599Y-2928498D01*
G37*
G36*
G01X-1453601Y-3167502D02*
G01X-1458603Y-3172501D01*
G01X-1538602Y-3172501D01*
G01X-1543601Y-3167502D01*
G01X-1543601Y-3087502D01*
G01X-1538602Y-3082501D01*
G01X-1514399Y-3082501D01*
G01X-1514399Y-3119501D01*
G01X-1481399Y-3119501D01*
G01X-1481399Y-3082501D01*
G01X-1458603Y-3082501D01*
G01X-1453601Y-3087502D01*
G01X-1453601Y-3167502D01*
G37*
G36*
G01X2799202Y-3536401D02*
G01X2804201Y-3541403D01*
G01X2804201Y-3621402D01*
G01X2799202Y-3626401D01*
G01X2719202Y-3626401D01*
G01X2714201Y-3621402D01*
G01X2714201Y-3597199D01*
G01X2751201Y-3597199D01*
G01X2751201Y-3564199D01*
G01X2714201Y-3564199D01*
G01X2714201Y-3541403D01*
G01X2719202Y-3536401D01*
G01X2799202Y-3536401D01*
G37*
G36*
G01X2560198Y-3626399D02*
G01X2555199Y-3621397D01*
G01X2555199Y-3541398D01*
G01X2560198Y-3536399D01*
G01X2640198Y-3536399D01*
G01X2645199Y-3541398D01*
G01X2645199Y-3565601D01*
G01X2608199Y-3565601D01*
G01X2608199Y-3598601D01*
G01X2645199Y-3598601D01*
G01X2645199Y-3621397D01*
G01X2640198Y-3626399D01*
G01X2560198Y-3626399D01*
G37*

G04 Pad Start*
G54D10*
G01X-603098Y-6413500D03*
G01X-743102Y-6413500D03*
G01X743102Y-3517900D03*
G01X603098Y-3517900D03*
G04 Pad End*

M02*

